<svg width="100" height="100" viewBox="0 0 100 100" fill="none" xmlns="http://www.w3.org/2000/svg">
<g opacity="0.2" filter="url(#filter0_dd_56_271)">
<circle cx="50" cy="30" r="30" fill="white"/>
<circle cx="50" cy="30" r="29.5" stroke="black"/>
</g>
<path d="M57.3906 45.5847H43.7716C43.6949 45.5847 43.6214 45.5542 43.5671 45.5C43.5129 45.4458 43.4824 45.3722 43.4824 45.2955C43.4824 45.2188 43.5129 45.1453 43.5671 45.091C43.6214 45.0368 43.6949 45.0063 43.7716 45.0063H57.3906C57.4674 45.0063 57.5409 45.0368 57.5951 45.091C57.6494 45.1453 57.6799 45.2188 57.6799 45.2955C57.6799 45.3722 57.6494 45.4458 57.5951 45.5C57.5409 45.5542 57.4674 45.5847 57.3906 45.5847Z" fill="black" stroke="black" stroke-width="0.5"/>
<path d="M66.0514 40.6954C65.5669 40.6983 65.1004 40.5114 64.7518 40.1749L59.7561 35.1734H42.3989C41.8918 35.1745 41.4048 34.9754 41.0437 34.6193L39.4294 33.0044C39.4018 32.9778 39.3797 32.9458 39.3646 32.9106C39.3494 32.8753 39.3415 32.8373 39.3411 32.7989C39.3408 32.7605 39.3481 32.7224 39.3626 32.6869C39.3772 32.6514 39.3987 32.6191 39.4258 32.5919C39.453 32.5648 39.4853 32.5433 39.5208 32.5287C39.5563 32.5142 39.5944 32.5069 39.6328 32.5072C39.6712 32.5076 39.7092 32.5155 39.7445 32.5307C39.7797 32.5458 39.8116 32.5679 39.8383 32.5955L41.4509 34.2087C41.7038 34.4571 42.0444 34.5959 42.3989 34.595H59.8776C59.9542 34.5952 60.0277 34.6258 60.0818 34.6801L65.1567 39.7596C65.4192 39.9861 65.7544 40.1107 66.1012 40.1107C66.4479 40.1107 66.7832 39.9861 67.0457 39.7596C67.1704 39.6359 67.2694 39.4888 67.3369 39.3267C67.4045 39.1645 67.4392 38.9907 67.4392 38.815C67.4392 38.6394 67.4045 38.4655 67.3369 38.3034C67.2694 38.1413 67.1704 37.9942 67.0457 37.8705L61.4931 32.3179C61.3689 32.1931 61.2213 32.0942 61.0587 32.0268C60.896 31.9595 60.7217 31.9252 60.5457 31.9257H43.0681C42.9916 31.9257 42.9181 31.8953 42.8639 31.8413L33.8617 22.8344C33.6106 22.5851 33.271 22.4452 32.9172 22.4452C32.5633 22.4452 32.2238 22.5851 31.9727 22.8344C31.848 22.9581 31.749 23.1052 31.6815 23.2673C31.6139 23.4294 31.5791 23.6033 31.5791 23.7789C31.5791 23.9546 31.6139 24.1284 31.6815 24.2905C31.749 24.4527 31.848 24.5998 31.9727 24.7235L33.3938 26.144C33.4465 26.1986 33.4756 26.2716 33.475 26.3474C33.4743 26.4233 33.4439 26.4958 33.3903 26.5494C33.3366 26.603 33.2641 26.6335 33.1883 26.6341C33.1125 26.6348 33.0394 26.6056 32.9849 26.5529L31.5637 25.133C31.3851 24.9556 31.2433 24.7446 31.1466 24.5121C31.0498 24.2797 31 24.0304 31 23.7786C31 23.5269 31.0498 23.2776 31.1466 23.0452C31.2433 22.8127 31.3851 22.6017 31.5637 22.4243C31.9236 22.0675 32.4098 21.8673 32.9166 21.8673C33.4234 21.8673 33.9096 22.0675 34.2695 22.4243L43.1878 31.3479H60.5474C60.7994 31.347 61.0492 31.3963 61.282 31.4928C61.5149 31.5893 61.7262 31.7312 61.9037 31.9101L67.4564 37.4627C67.635 37.6402 67.7768 37.8512 67.8736 38.0836C67.9703 38.316 68.0201 38.5653 68.0201 38.8171C68.0201 39.0688 67.9703 39.3181 67.8736 39.5506C67.7768 39.783 67.635 39.994 67.4564 40.1714C67.0682 40.5125 66.5682 40.699 66.0514 40.6954Z" fill="black" stroke="black" stroke-width="0.5"/>
<path d="M36.9657 30.4155C36.8893 30.4154 36.8161 30.385 36.7621 30.3311L35.6533 29.2275C35.6256 29.2009 35.6035 29.1691 35.5882 29.1338C35.573 29.0986 35.5649 29.0607 35.5645 29.0223C35.564 28.9839 35.5712 28.9458 35.5857 28.9102C35.6001 28.8746 35.6215 28.8423 35.6486 28.8151C35.6757 28.7878 35.7079 28.7663 35.7434 28.7516C35.7789 28.737 35.8169 28.7296 35.8553 28.7298C35.8937 28.73 35.9317 28.7379 35.967 28.7529C36.0023 28.768 36.0343 28.7899 36.0611 28.8174L37.1699 29.921C37.2106 29.9614 37.2384 30.013 37.2497 30.0692C37.261 30.1254 37.2554 30.1837 37.2335 30.2367C37.2116 30.2897 37.1745 30.335 37.1268 30.3669C37.0791 30.3987 37.023 30.4156 36.9657 30.4155Z" fill="black" stroke="black" stroke-width="0.5"/>
<path d="M45.2228 31.9263C45.1461 31.9263 45.0725 31.8959 45.0183 31.8416C44.9641 31.7874 44.9336 31.7138 44.9336 31.6371V27.9932C44.9336 27.9165 44.9641 27.843 45.0183 27.7887C45.0725 27.7345 45.1461 27.704 45.2228 27.704H52.1885C52.2652 27.704 52.3387 27.7345 52.393 27.7887C52.4472 27.843 52.4777 27.9165 52.4777 27.9932C52.4777 28.0699 52.4472 28.1435 52.393 28.1977C52.3387 28.2519 52.2652 28.2824 52.1885 28.2824H45.512V31.6371C45.512 31.7138 45.4815 31.7874 45.4273 31.8416C45.3731 31.8959 45.2995 31.9263 45.2228 31.9263Z" fill="black" stroke="black" stroke-width="0.5"/>
<path d="M53.5583 45.5846C53.546 45.5846 53.5338 45.5846 53.5219 45.5846C53.4842 45.5799 53.4477 45.5678 53.4147 45.549C53.3816 45.5302 53.3526 45.5051 53.3293 45.475C53.306 45.445 53.2888 45.4107 53.2788 45.374C53.2688 45.3373 53.2661 45.299 53.2708 45.2613L54.5809 34.8501C54.5841 34.8113 54.595 34.7735 54.6131 34.7391C54.6313 34.7046 54.6561 34.6741 54.6863 34.6495C54.7165 34.6249 54.7513 34.6066 54.7887 34.5958C54.8261 34.5849 54.8653 34.5818 54.9039 34.5864C54.9426 34.5911 54.9799 34.6036 55.0136 34.623C55.0473 34.6424 55.0768 34.6685 55.1002 34.6996C55.1236 34.7307 55.1405 34.7662 55.1499 34.804C55.1593 34.8418 55.1609 34.8811 55.1547 34.9195L53.8475 45.3307C53.8389 45.4012 53.8046 45.466 53.7513 45.5128C53.698 45.5596 53.6293 45.5852 53.5583 45.5846Z" fill="black" stroke="black" stroke-width="0.5"/>
<path d="M47.6035 45.5847C47.5331 45.5845 47.4651 45.5586 47.4124 45.5119C47.3597 45.4651 47.3258 45.4007 47.3172 45.3308L46.0072 34.9196C45.9976 34.8434 46.0186 34.7665 46.0657 34.7059C46.1128 34.6453 46.182 34.6058 46.2582 34.5962C46.3343 34.5866 46.4112 34.6077 46.4718 34.6548C46.5325 34.7019 46.5719 34.7711 46.5815 34.8473L47.891 45.2585C47.9007 45.3346 47.8797 45.4114 47.8327 45.472C47.7858 45.5326 47.7166 45.5721 47.6406 45.5818C47.6278 45.5841 47.6163 45.5847 47.6035 45.5847Z" fill="black" stroke="black" stroke-width="0.5"/>
<path d="M65.5842 36.288C65.5075 36.288 65.4339 36.2576 65.3797 36.2033C65.3255 36.1491 65.295 36.0755 65.295 35.9988V20.6475C65.2935 19.3036 64.7589 18.0151 63.8086 17.0648C62.8583 16.1145 61.5698 15.5799 60.2259 15.5784C59.3727 15.5784 57.1795 16.0747 56.2222 17.5496C56.2018 17.5819 56.1751 17.6099 56.1438 17.6319C56.1125 17.6539 56.0771 17.6694 56.0397 17.6776C56.0023 17.6858 55.9637 17.6866 55.926 17.6797C55.8884 17.6729 55.8525 17.6586 55.8203 17.6378C55.7882 17.617 55.7606 17.59 55.739 17.5584C55.7174 17.5268 55.7022 17.4913 55.6945 17.4538C55.6867 17.4163 55.6865 17.3777 55.6938 17.3401C55.701 17.3026 55.7157 17.2668 55.7369 17.2349C56.833 15.546 59.2345 15 60.2259 15C61.7232 15.0017 63.1587 15.5972 64.2174 16.656C65.2762 17.7147 65.8717 19.1502 65.8734 20.6475V35.9988C65.8734 36.0755 65.8429 36.1491 65.7887 36.2033C65.7345 36.2576 65.6609 36.288 65.5842 36.288Z" fill="black" stroke="black" stroke-width="0.5"/>
<path d="M55.9791 21.8789C55.9411 21.879 55.9034 21.8716 55.8683 21.8571C55.8332 21.8426 55.8012 21.8213 55.7743 21.7945L51.5769 17.597C51.5226 17.5428 51.4922 17.4692 51.4922 17.3925C51.4922 17.3159 51.5226 17.2423 51.5769 17.1881C52.1877 16.5772 53.0162 16.2341 53.8801 16.2341C54.7439 16.2341 55.5724 16.5772 56.1832 17.1881C56.7941 17.7989 57.1373 18.6274 57.1373 19.4913C57.1373 20.3551 56.7941 21.1836 56.1832 21.7945C56.129 21.8485 56.0556 21.8789 55.9791 21.8789ZM52.201 17.4032L55.9681 21.1698C56.3821 20.6551 56.5913 20.0055 56.5556 19.3459C56.52 18.6863 56.2418 18.0631 55.7747 17.5961C55.3076 17.129 54.6844 16.851 54.0248 16.8154C53.3651 16.7798 52.7156 16.9892 52.201 17.4032Z" fill="black" stroke="black" stroke-width="0.5"/>
<defs>
<filter id="filter0_dd_56_271" x="0" y="0" width="100" height="100" filterUnits="userSpaceOnUse" color-interpolation-filters="sRGB">
<feFlood flood-opacity="0" result="BackgroundImageFix"/>
<feColorMatrix in="SourceAlpha" type="matrix" values="0 0 0 0 0 0 0 0 0 0 0 0 0 0 0 0 0 0 127 0" result="hardAlpha"/>
<feMorphology radius="4" operator="erode" in="SourceAlpha" result="effect1_dropShadow_56_271"/>
<feOffset dy="8"/>
<feGaussianBlur stdDeviation="4"/>
<feColorMatrix type="matrix" values="0 0 0 0 0.0666667 0 0 0 0 0.0941176 0 0 0 0 0.152941 0 0 0 0.36 0"/>
<feBlend mode="normal" in2="BackgroundImageFix" result="effect1_dropShadow_56_271"/>
<feColorMatrix in="SourceAlpha" type="matrix" values="0 0 0 0 0 0 0 0 0 0 0 0 0 0 0 0 0 0 127 0" result="hardAlpha"/>
<feMorphology radius="4" operator="erode" in="SourceAlpha" result="effect2_dropShadow_56_271"/>
<feOffset dy="20"/>
<feGaussianBlur stdDeviation="12"/>
<feColorMatrix type="matrix" values="0 0 0 0 0.0666667 0 0 0 0 0.0941176 0 0 0 0 0.152941 0 0 0 0.32 0"/>
<feBlend mode="normal" in2="effect1_dropShadow_56_271" result="effect2_dropShadow_56_271"/>
<feBlend mode="normal" in="SourceGraphic" in2="effect2_dropShadow_56_271" result="shape"/>
</filter>
</defs>
</svg>
