<svg width="100" height="100" viewBox="0 0 100 100" fill="none" xmlns="http://www.w3.org/2000/svg">
<g opacity="0.2" filter="url(#filter0_dd_917_39)">
<circle cx="50" cy="30" r="30" fill="white"/>
<circle cx="50" cy="30" r="29.5" stroke="black"/>
</g>
<path d="M61.033 32.3056C60.959 32.3056 60.888 32.2762 60.8356 32.2238C60.7833 32.1715 60.7539 32.1005 60.7539 32.0265V30.4888C60.7539 30.4148 60.7833 30.3438 60.8356 30.2915C60.888 30.2391 60.959 30.2097 61.033 30.2097C61.107 30.2097 61.178 30.2391 61.2303 30.2915C61.2827 30.3438 61.3121 30.4148 61.3121 30.4888V32.0265C61.3121 32.1005 61.2827 32.1715 61.2303 32.2238C61.178 32.2762 61.107 32.3056 61.033 32.3056Z" fill="black" stroke="black" stroke-width="0.5"/>
<path d="M61.0326 47.5428H38.2791C38.2051 47.5428 38.1341 47.5134 38.0817 47.4611C38.0294 47.4088 38 47.3378 38 47.2638V16.7598C38 16.6858 38.0294 16.6148 38.0817 16.5625C38.1341 16.5102 38.2051 16.4808 38.2791 16.4808H43.4509C43.5249 16.4808 43.5959 16.5102 43.6482 16.5625C43.7005 16.6148 43.73 16.6858 43.73 16.7598C43.73 16.8339 43.7005 16.9048 43.6482 16.9572C43.5959 17.0095 43.5249 17.0389 43.4509 17.0389H38.5581V46.9847H60.7535V40.7692C60.7535 40.6951 60.7829 40.6242 60.8352 40.5718C60.8876 40.5195 60.9585 40.4901 61.0326 40.4901C61.1066 40.4901 61.1775 40.5195 61.2299 40.5718C61.2822 40.6242 61.3116 40.6951 61.3116 40.7692V47.2638C61.3116 47.3378 61.2822 47.4088 61.2299 47.4611C61.1775 47.5134 61.1066 47.5428 61.0326 47.5428Z" fill="black" stroke="black" stroke-width="0.5"/>
<path d="M61.033 37.428C60.959 37.428 60.888 37.3986 60.8356 37.3463C60.7833 37.2939 60.7539 37.2229 60.7539 37.1489V35.6419C60.7539 35.5679 60.7833 35.4969 60.8356 35.4446C60.888 35.3923 60.959 35.3629 61.033 35.3629C61.107 35.3629 61.178 35.3923 61.2303 35.4446C61.2827 35.4969 61.3121 35.5679 61.3121 35.6419V37.1489C61.3121 37.2229 61.2827 37.2939 61.2303 37.3463C61.178 37.3986 61.107 37.428 61.033 37.428Z" fill="black" stroke="black" stroke-width="0.5"/>
<path d="M61.0329 27.1481C60.9589 27.1481 60.8879 27.1187 60.8356 27.0664C60.7832 27.014 60.7538 26.943 60.7538 26.869V17.0389H55.8611C55.7871 17.0389 55.7161 17.0095 55.6638 16.9572C55.6114 16.9048 55.582 16.8339 55.582 16.7598C55.582 16.6858 55.6114 16.6148 55.6638 16.5625C55.7161 16.5102 55.7871 16.4808 55.8611 16.4808H61.0329C61.1069 16.4808 61.1779 16.5102 61.2302 16.5625C61.2826 16.6148 61.312 16.6858 61.312 16.7598V26.869C61.312 26.943 61.2826 27.014 61.2302 27.0664C61.1779 27.1187 61.1069 27.1481 61.0329 27.1481Z" fill="black" stroke="black" stroke-width="0.5"/>
<path d="M55.8608 18.585H43.4509C43.3769 18.585 43.306 18.5556 43.2536 18.5033C43.2013 18.451 43.1719 18.38 43.1719 18.306V15.2032C43.1719 15.1292 43.2013 15.0582 43.2536 15.0059C43.306 14.9535 43.3769 14.9241 43.4509 14.9241H46.6586C46.7198 14.1565 47.0572 13.4372 47.6084 12.8994C48.1595 12.3617 48.887 12.0422 49.6559 12C50.4248 12.0422 51.1522 12.3617 51.7034 12.8994C52.2546 13.4372 52.592 14.1565 52.6531 14.9241H55.8608C55.9348 14.9241 56.0058 14.9535 56.0582 15.0059C56.1105 15.0582 56.1399 15.1292 56.1399 15.2032V18.306C56.1399 18.38 56.1105 18.451 56.0582 18.5033C56.0058 18.5556 55.9348 18.585 55.8608 18.585ZM43.73 18.0269H55.5817V15.4823H52.3869C52.3129 15.4823 52.2419 15.4529 52.1896 15.4005C52.1372 15.3482 52.1078 15.2772 52.1078 15.2032C52.1148 14.5324 51.8646 13.8844 51.4085 13.3925C50.9525 12.9005 50.3253 12.6019 49.6559 12.5581C48.9865 12.6019 48.3593 12.9005 47.9032 13.3925C47.4472 13.8844 47.1969 14.5324 47.2039 15.2032C47.2039 15.2772 47.1745 15.3482 47.1222 15.4005C47.0699 15.4529 46.9989 15.4823 46.9249 15.4823H43.73V18.0269Z" fill="black" stroke="black" stroke-width="0.5"/>
<path d="M49.6559 15.6976C49.442 15.6976 49.2328 15.6342 49.055 15.5153C48.8771 15.3965 48.7384 15.2275 48.6566 15.0299C48.5747 14.8322 48.5533 14.6147 48.595 14.4049C48.6367 14.1951 48.7398 14.0023 48.891 13.8511C49.0423 13.6998 49.2351 13.5968 49.4449 13.555C49.6547 13.5133 49.8722 13.5347 50.0699 13.6166C50.2675 13.6985 50.4364 13.8371 50.5553 14.015C50.6742 14.1929 50.7376 14.402 50.7376 14.6159C50.7373 14.9027 50.6232 15.1777 50.4205 15.3805C50.2177 15.5833 49.9427 15.6973 49.6559 15.6976ZM49.6559 14.0924C49.5524 14.0924 49.4511 14.1231 49.365 14.1806C49.2789 14.2382 49.2118 14.3199 49.1722 14.4156C49.1326 14.5112 49.1222 14.6165 49.1424 14.7181C49.1626 14.8196 49.2125 14.9129 49.2857 14.9861C49.3589 15.0594 49.4522 15.1092 49.5538 15.1294C49.6553 15.1496 49.7606 15.1392 49.8563 15.0996C49.9519 15.06 50.0337 14.9929 50.0912 14.9068C50.1487 14.8207 50.1795 14.7195 50.1795 14.6159C50.1793 14.4771 50.1241 14.344 50.0259 14.2459C49.9278 14.1477 49.7947 14.0925 49.6559 14.0924Z" fill="black" stroke="black" stroke-width="0.5"/>
<path d="M57.779 22.6841H41.533C41.459 22.6841 41.388 22.6547 41.3356 22.6024C41.2833 22.55 41.2539 22.479 41.2539 22.405C41.2539 22.331 41.2833 22.26 41.3356 22.2077C41.388 22.1553 41.459 22.1259 41.533 22.1259H57.779C57.853 22.1259 57.924 22.1553 57.9763 22.2077C58.0287 22.26 58.0581 22.331 58.0581 22.405C58.0581 22.479 58.0287 22.55 57.9763 22.6024C57.924 22.6547 57.853 22.6841 57.779 22.6841Z" fill="black" stroke="black" stroke-width="0.5"/>
<path d="M57.779 26.4593H41.533C41.459 26.4593 41.388 26.4299 41.3356 26.3776C41.2833 26.3253 41.2539 26.2543 41.2539 26.1803C41.2539 26.1062 41.2833 26.0353 41.3356 25.9829C41.388 25.9306 41.459 25.9012 41.533 25.9012H57.779C57.853 25.9012 57.924 25.9306 57.9763 25.9829C58.0287 26.0353 58.0581 26.1062 58.0581 26.1803C58.0581 26.2543 58.0287 26.3253 57.9763 26.3776C57.924 26.4299 57.853 26.4593 57.779 26.4593Z" fill="black" stroke="black" stroke-width="0.5"/>
<path d="M47.238 43.4366C47.0973 43.4372 46.959 43.3998 46.8378 43.3283C45.4731 42.5134 45.2828 39.7695 45.2906 38.2062C45.2767 38.1325 45.1042 37.638 44.9373 37.1602C44.459 35.7905 43.7373 33.7214 43.7373 32.834C43.7373 30.3552 45.4313 29.9182 46.4404 29.8791C47.2799 29.8668 48.1066 30.0864 48.8293 30.5138C49.084 30.6489 49.3679 30.7195 49.6562 30.7195C49.9445 30.7195 50.2284 30.6489 50.4831 30.5138C51.2034 30.0836 52.0298 29.8636 52.8686 29.8786C53.8794 29.9177 55.5745 30.3547 55.5745 32.8368C55.5745 33.5205 55.0242 35.2016 54.4119 37.0117C54.2305 37.547 54.043 38.1001 54.0212 38.2218C54.0279 39.788 53.8342 42.5195 52.4757 43.3283C52.3175 43.4102 52.1387 43.4436 51.9616 43.4244C51.7845 43.4053 51.617 43.3344 51.4799 43.2206C51.2115 43.0386 51.0686 42.495 50.7968 41.3831C50.5579 40.4058 50.113 38.5868 49.6487 38.574C49.2166 38.5863 48.8003 40.3042 48.5765 41.2296C48.3085 42.3353 48.1428 42.9733 47.8509 43.2072C47.6786 43.3511 47.4624 43.432 47.238 43.4366ZM46.5816 30.4345C46.5414 30.4345 46.5018 30.4345 46.4616 30.4345C45.0244 30.4903 44.2955 31.2974 44.2955 32.8345C44.2955 33.6277 45.0272 35.7241 45.4642 36.9766C45.6346 37.3728 45.7634 37.7856 45.8488 38.2084C45.8443 39.1165 45.923 42.1322 47.1225 42.8488C47.1863 42.8742 47.2562 42.8803 47.3235 42.8665C47.3908 42.8527 47.4527 42.8196 47.5015 42.7713C47.7573 42.2412 47.9364 41.6774 48.0334 41.0968C48.3973 39.5937 48.774 38.0393 49.6481 38.0147C50.5534 38.0398 50.9525 39.6713 51.3387 41.2492C51.4344 41.771 51.5904 42.2799 51.8037 42.7657C51.9086 42.836 52.0716 42.9158 52.1944 42.8466C53.3916 42.1322 53.4697 39.1165 53.4653 38.2089C53.5627 37.7384 53.7034 37.2778 53.8856 36.8331C54.3098 35.5806 55.0192 33.4842 55.0192 32.8368C55.0192 31.3013 54.2891 30.4925 52.8502 30.4367C52.1152 30.4232 51.3915 30.618 50.7627 30.9988C50.4238 31.1819 50.0445 31.2778 49.6593 31.2778C49.274 31.2778 48.8948 31.1819 48.5558 30.9988C47.9581 30.6419 47.2776 30.4474 46.5816 30.4345Z" fill="black" stroke="black" stroke-width="0.5"/>
<defs>
<filter id="filter0_dd_917_39" x="0" y="0" width="100" height="100" filterUnits="userSpaceOnUse" color-interpolation-filters="sRGB">
<feFlood flood-opacity="0" result="BackgroundImageFix"/>
<feColorMatrix in="SourceAlpha" type="matrix" values="0 0 0 0 0 0 0 0 0 0 0 0 0 0 0 0 0 0 127 0" result="hardAlpha"/>
<feMorphology radius="4" operator="erode" in="SourceAlpha" result="effect1_dropShadow_917_39"/>
<feOffset dy="8"/>
<feGaussianBlur stdDeviation="4"/>
<feColorMatrix type="matrix" values="0 0 0 0 0.0666667 0 0 0 0 0.0941176 0 0 0 0 0.152941 0 0 0 0.36 0"/>
<feBlend mode="normal" in2="BackgroundImageFix" result="effect1_dropShadow_917_39"/>
<feColorMatrix in="SourceAlpha" type="matrix" values="0 0 0 0 0 0 0 0 0 0 0 0 0 0 0 0 0 0 127 0" result="hardAlpha"/>
<feMorphology radius="4" operator="erode" in="SourceAlpha" result="effect2_dropShadow_917_39"/>
<feOffset dy="20"/>
<feGaussianBlur stdDeviation="12"/>
<feColorMatrix type="matrix" values="0 0 0 0 0.0666667 0 0 0 0 0.0941176 0 0 0 0 0.152941 0 0 0 0.32 0"/>
<feBlend mode="normal" in2="effect1_dropShadow_917_39" result="effect2_dropShadow_917_39"/>
<feBlend mode="normal" in="SourceGraphic" in2="effect2_dropShadow_917_39" result="shape"/>
</filter>
</defs>
</svg>
