<svg width="55" height="55" viewBox="0 0 55 55" fill="none" xmlns="http://www.w3.org/2000/svg">
<g opacity="0.2" filter="url(#filter0_dd_58_764)">
<circle cx="27.4532" cy="16.4532" r="16.4532" fill="white"/>
<circle cx="27.4532" cy="16.4532" r="16.179" stroke="black" stroke-width="0.54844"/>
</g>
<path d="M33.5066 17.7177C33.466 17.7177 33.427 17.7016 33.3983 17.6729C33.3696 17.6442 33.3535 17.6053 33.3535 17.5647V16.7213C33.3535 16.6807 33.3696 16.6418 33.3983 16.6131C33.427 16.5844 33.466 16.5683 33.5066 16.5683C33.5472 16.5683 33.5861 16.5844 33.6148 16.6131C33.6435 16.6418 33.6596 16.6807 33.6596 16.7213V17.5647C33.6596 17.6053 33.6435 17.6442 33.6148 17.6729C33.5861 17.7016 33.5472 17.7177 33.5066 17.7177Z" fill="black" stroke="black" stroke-width="0.27422"/>
<path d="M33.505 26.0744H21.0261C20.9855 26.0744 20.9466 26.0583 20.9179 26.0296C20.8892 26.0009 20.873 25.962 20.873 25.9214V9.1918C20.873 9.1512 20.8892 9.11227 20.9179 9.08357C20.9466 9.05487 20.9855 9.03874 21.0261 9.03874H23.8625C23.9031 9.03874 23.942 9.05487 23.9708 9.08357C23.9995 9.11227 24.0156 9.1512 24.0156 9.1918C24.0156 9.23239 23.9995 9.27132 23.9708 9.30002C23.942 9.32873 23.9031 9.34485 23.8625 9.34485H21.1792V25.7683H33.352V22.3595C33.352 22.3189 33.3681 22.2799 33.3968 22.2512C33.4255 22.2225 33.4644 22.2064 33.505 22.2064C33.5456 22.2064 33.5845 22.2225 33.6132 22.2512C33.642 22.2799 33.6581 22.3189 33.6581 22.3595V25.9214C33.6581 25.962 33.642 26.0009 33.6132 26.0296C33.5845 26.0583 33.5456 26.0744 33.505 26.0744Z" fill="black" stroke="black" stroke-width="0.27422"/>
<path d="M33.5066 20.527C33.466 20.527 33.427 20.5109 33.3983 20.4822C33.3696 20.4535 33.3535 20.4146 33.3535 20.374V19.5475C33.3535 19.5069 33.3696 19.468 33.3983 19.4393C33.427 19.4106 33.466 19.3944 33.5066 19.3944C33.5472 19.3944 33.5861 19.4106 33.6148 19.4393C33.6435 19.468 33.6596 19.5069 33.6596 19.5475V20.374C33.6596 20.4146 33.6435 20.4535 33.6148 20.4822C33.5861 20.5109 33.5472 20.527 33.5066 20.527Z" fill="black" stroke="black" stroke-width="0.27422"/>
<path d="M33.5051 14.8891C33.4645 14.8891 33.4256 14.873 33.3969 14.8443C33.3682 14.8156 33.352 14.7767 33.352 14.7361V9.34484H30.6687C30.6281 9.34484 30.5892 9.32871 30.5605 9.30001C30.5318 9.27131 30.5156 9.23238 30.5156 9.19178C30.5156 9.15119 30.5318 9.11226 30.5605 9.08356C30.5892 9.05485 30.6281 9.03873 30.6687 9.03873H33.5051C33.5457 9.03873 33.5846 9.05485 33.6133 9.08356C33.642 9.11226 33.6582 9.15119 33.6582 9.19178V14.7361C33.6582 14.7767 33.642 14.8156 33.6133 14.8443C33.5846 14.873 33.5457 14.8891 33.5051 14.8891Z" fill="black" stroke="black" stroke-width="0.27422"/>
<path d="M30.6681 10.1928H23.862C23.8214 10.1928 23.7825 10.1767 23.7538 10.148C23.7251 10.1193 23.709 10.0803 23.709 10.0397V8.33807C23.709 8.29748 23.7251 8.25855 23.7538 8.22984C23.7825 8.20114 23.8214 8.18501 23.862 8.18501H25.6213C25.6548 7.76404 25.8398 7.3695 26.1421 7.07459C26.4444 6.77968 26.8434 6.60442 27.2651 6.5813C27.6868 6.60442 28.0857 6.77968 28.388 7.07459C28.6903 7.3695 28.8754 7.76404 28.9089 8.18501H30.6681C30.7087 8.18501 30.7476 8.20114 30.7763 8.22984C30.805 8.25855 30.8212 8.29748 30.8212 8.33807V10.0397C30.8212 10.0803 30.805 10.1193 30.7763 10.148C30.7476 10.1767 30.7087 10.1928 30.6681 10.1928ZM24.0151 9.88668H30.5151V8.49112H28.7629C28.7223 8.49112 28.6834 8.475 28.6547 8.4463C28.6259 8.41759 28.6098 8.37866 28.6098 8.33807C28.6137 7.97018 28.4764 7.6148 28.2263 7.34498C27.9762 7.07517 27.6322 6.91142 27.2651 6.88741C26.8979 6.91142 26.554 7.07517 26.3039 7.34498C26.0537 7.6148 25.9165 7.97018 25.9203 8.33807C25.9203 8.37866 25.9042 8.41759 25.8755 8.4463C25.8468 8.475 25.8079 8.49112 25.7673 8.49112H24.0151V9.88668Z" fill="black" stroke="black" stroke-width="0.27422"/>
<path d="M27.2651 8.60925C27.1478 8.60925 27.0331 8.57445 26.9355 8.50927C26.838 8.44408 26.7619 8.35143 26.717 8.24303C26.6721 8.13463 26.6604 8.01535 26.6833 7.90027C26.7062 7.78519 26.7627 7.67948 26.8456 7.59652C26.9286 7.51355 27.0343 7.45705 27.1494 7.43416C27.2645 7.41127 27.3837 7.42302 27.4921 7.46792C27.6005 7.51282 27.6932 7.58886 27.7584 7.68642C27.8236 7.78397 27.8584 7.89867 27.8584 8.016C27.8582 8.17329 27.7956 8.32409 27.6844 8.43531C27.5732 8.54653 27.4224 8.60908 27.2651 8.60925ZM27.2651 7.72887C27.2083 7.72887 27.1528 7.74571 27.1056 7.77726C27.0584 7.80881 27.0216 7.85366 26.9998 7.90612C26.9781 7.95859 26.9724 8.01632 26.9835 8.07202C26.9946 8.12772 27.0219 8.17888 27.0621 8.21904C27.1022 8.25919 27.1534 8.28654 27.2091 8.29762C27.2648 8.3087 27.3225 8.30301 27.375 8.28128C27.4275 8.25955 27.4723 8.22274 27.5039 8.17553C27.5354 8.12831 27.5522 8.07279 27.5522 8.016C27.5522 7.93988 27.5219 7.86689 27.4681 7.81306C27.4142 7.75923 27.3412 7.72895 27.2651 7.72887Z" fill="black" stroke="black" stroke-width="0.27422"/>
<path d="M31.7212 12.4409H22.8113C22.7707 12.4409 22.7317 12.4248 22.703 12.396C22.6743 12.3673 22.6582 12.3284 22.6582 12.2878C22.6582 12.2472 22.6743 12.2083 22.703 12.1796C22.7317 12.1509 22.7707 12.1348 22.8113 12.1348H31.7212C31.7618 12.1348 31.8008 12.1509 31.8295 12.1796C31.8582 12.2083 31.8743 12.2472 31.8743 12.2878C31.8743 12.3284 31.8582 12.3673 31.8295 12.396C31.8008 12.4248 31.7618 12.4409 31.7212 12.4409Z" fill="black" stroke="black" stroke-width="0.27422"/>
<path d="M31.7212 14.5114H22.8113C22.7707 14.5114 22.7317 14.4953 22.703 14.4666C22.6743 14.4379 22.6582 14.3989 22.6582 14.3583C22.6582 14.3178 22.6743 14.2788 22.703 14.2501C22.7317 14.2214 22.7707 14.2053 22.8113 14.2053H31.7212C31.7618 14.2053 31.8008 14.2214 31.8295 14.2501C31.8582 14.2788 31.8743 14.3178 31.8743 14.3583C31.8743 14.3989 31.8582 14.4379 31.8295 14.4666C31.8008 14.4953 31.7618 14.5114 31.7212 14.5114Z" fill="black" stroke="black" stroke-width="0.27422"/>
<path d="M25.9395 23.8224C25.8623 23.8227 25.7865 23.8022 25.72 23.763C24.9715 23.3161 24.8672 21.8112 24.8714 20.9538C24.8638 20.9134 24.7692 20.6422 24.6777 20.3802C24.4153 19.629 24.0195 18.4942 24.0195 18.0075C24.0195 16.6481 24.9486 16.4084 25.502 16.387C25.9625 16.3802 26.4158 16.5006 26.8122 16.735C26.9519 16.8091 27.1076 16.8479 27.2657 16.8479C27.4238 16.8479 27.5795 16.8091 27.7192 16.735C28.1143 16.4991 28.5674 16.3785 29.0275 16.3867C29.5819 16.4081 30.5115 16.6478 30.5115 18.009C30.5115 18.384 30.2097 19.306 29.8739 20.2988C29.7744 20.5923 29.6716 20.8957 29.6596 20.9624C29.6633 21.8213 29.5571 23.3195 28.812 23.763C28.7252 23.8079 28.6272 23.8263 28.5301 23.8157C28.4329 23.8052 28.3411 23.7663 28.2659 23.7039C28.1187 23.6041 28.0403 23.306 27.8912 22.6962C27.7602 22.1602 27.5162 21.1626 27.2616 21.1556C27.0246 21.1623 26.7963 22.1045 26.6735 22.612C26.5266 23.2184 26.4357 23.5683 26.2756 23.6966C26.1811 23.7755 26.0625 23.8199 25.9395 23.8224ZM25.5795 16.6915C25.5574 16.6915 25.5357 16.6915 25.5137 16.6915C24.7254 16.7221 24.3256 17.1648 24.3256 18.0078C24.3256 18.4428 24.727 19.5926 24.9666 20.2795C25.0601 20.4968 25.1307 20.7232 25.1775 20.9551C25.1751 21.4531 25.2183 23.107 25.8761 23.5001C25.9111 23.5139 25.9494 23.5173 25.9864 23.5098C26.0233 23.5022 26.0572 23.484 26.0839 23.4575C26.2243 23.1668 26.3225 22.8576 26.3757 22.5392C26.5753 21.7148 26.7819 20.8623 27.2612 20.8488C27.7578 20.8626 27.9766 21.7574 28.1885 22.6227C28.2409 22.9089 28.3265 23.188 28.4434 23.4545C28.501 23.493 28.5904 23.5368 28.6577 23.4988C29.3143 23.107 29.3572 21.4531 29.3547 20.9554C29.4082 20.6973 29.4853 20.4447 29.5852 20.2008C29.8179 19.5139 30.207 18.3641 30.207 18.009C30.207 17.1669 29.8066 16.7234 29.0174 16.6928C28.6143 16.6853 28.2174 16.7922 27.8726 17.001C27.6866 17.1015 27.4787 17.1541 27.2674 17.1541C27.0561 17.1541 26.8481 17.1015 26.6622 17.001C26.3344 16.8053 25.9612 16.6986 25.5795 16.6915Z" fill="black" stroke="black" stroke-width="0.27422"/>
<defs>
<filter id="filter0_dd_58_764" x="0.031199" y="0" width="54.8439" height="54.844" filterUnits="userSpaceOnUse" color-interpolation-filters="sRGB">
<feFlood flood-opacity="0" result="BackgroundImageFix"/>
<feColorMatrix in="SourceAlpha" type="matrix" values="0 0 0 0 0 0 0 0 0 0 0 0 0 0 0 0 0 0 127 0" result="hardAlpha"/>
<feMorphology radius="2.19376" operator="erode" in="SourceAlpha" result="effect1_dropShadow_58_764"/>
<feOffset dy="4.38752"/>
<feGaussianBlur stdDeviation="2.19376"/>
<feColorMatrix type="matrix" values="0 0 0 0 0.0666667 0 0 0 0 0.0941176 0 0 0 0 0.152941 0 0 0 0.36 0"/>
<feBlend mode="normal" in2="BackgroundImageFix" result="effect1_dropShadow_58_764"/>
<feColorMatrix in="SourceAlpha" type="matrix" values="0 0 0 0 0 0 0 0 0 0 0 0 0 0 0 0 0 0 127 0" result="hardAlpha"/>
<feMorphology radius="2.19376" operator="erode" in="SourceAlpha" result="effect2_dropShadow_58_764"/>
<feOffset dy="10.9688"/>
<feGaussianBlur stdDeviation="6.58128"/>
<feColorMatrix type="matrix" values="0 0 0 0 0.0666667 0 0 0 0 0.0941176 0 0 0 0 0.152941 0 0 0 0.32 0"/>
<feBlend mode="normal" in2="effect1_dropShadow_58_764" result="effect2_dropShadow_58_764"/>
<feBlend mode="normal" in="SourceGraphic" in2="effect2_dropShadow_58_764" result="shape"/>
</filter>
</defs>
</svg>
