<svg width="55" height="55" viewBox="0 0 55 55" fill="none" xmlns="http://www.w3.org/2000/svg">
<g opacity="0.2" filter="url(#filter0_dd_58_765)">
<circle cx="27.4532" cy="16.4532" r="16.4532" fill="white"/>
<circle cx="27.4532" cy="16.4532" r="16.179" stroke="black" stroke-width="0.54844"/>
</g>
<path d="M31.5048 25.0005H24.0356C23.9935 25.0005 23.9532 24.9838 23.9234 24.954C23.8937 24.9243 23.877 24.8839 23.877 24.8419C23.877 24.7998 23.8937 24.7595 23.9234 24.7297C23.9532 24.7 23.9935 24.6833 24.0356 24.6833H31.5048C31.5468 24.6833 31.5872 24.7 31.6169 24.7297C31.6467 24.7595 31.6634 24.7998 31.6634 24.8419C31.6634 24.8839 31.6467 24.9243 31.6169 24.954C31.5872 24.9838 31.5468 25.0005 31.5048 25.0005Z" fill="black" stroke="black" stroke-width="0.27422"/>
<path d="M36.2549 22.319C35.9891 22.3206 35.7333 22.2181 35.5421 22.0335L32.8023 19.2905H23.2829C23.0048 19.2911 22.7377 19.1819 22.5396 18.9866L21.6543 18.1009C21.6391 18.0863 21.627 18.0688 21.6187 18.0495C21.6104 18.0301 21.606 18.0093 21.6059 17.9882C21.6057 17.9672 21.6097 17.9463 21.6177 17.9268C21.6256 17.9073 21.6374 17.8896 21.6523 17.8747C21.6672 17.8598 21.6849 17.848 21.7044 17.8401C21.7239 17.8321 21.7448 17.8281 21.7658 17.8283C21.7869 17.8284 21.8077 17.8328 21.8271 17.8411C21.8464 17.8494 21.8639 17.8615 21.8785 17.8767L22.7629 18.7614C22.9017 18.8976 23.0884 18.9738 23.2829 18.9733H32.8689C32.9109 18.9734 32.9512 18.9902 32.9809 19.0199L35.7641 21.8057C35.9081 21.93 36.092 21.9983 36.2821 21.9983C36.4723 21.9983 36.6562 21.93 36.8002 21.8057C36.8686 21.7379 36.9228 21.6572 36.9599 21.5683C36.9969 21.4794 37.016 21.384 37.016 21.2877C37.016 21.1914 36.9969 21.096 36.9599 21.0071C36.9228 20.9182 36.8686 20.8375 36.8002 20.7697L33.7549 17.7244C33.6868 17.656 33.6058 17.6017 33.5166 17.5648C33.4274 17.5279 33.3318 17.509 33.2353 17.5093H23.6499C23.6079 17.5093 23.5676 17.4927 23.5379 17.463L18.6007 12.5233C18.463 12.3866 18.2768 12.3098 18.0827 12.3098C17.8886 12.3098 17.7024 12.3866 17.5647 12.5233C17.4963 12.5911 17.442 12.6718 17.405 12.7607C17.3679 12.8496 17.3489 12.945 17.3489 13.0413C17.3489 13.1376 17.3679 13.233 17.405 13.3219C17.442 13.4108 17.4963 13.4915 17.5647 13.5593L18.3441 14.3384C18.373 14.3683 18.389 14.4084 18.3886 14.45C18.3883 14.4916 18.3716 14.5314 18.3422 14.5608C18.3128 14.5902 18.273 14.6068 18.2314 14.6072C18.1898 14.6076 18.1497 14.5916 18.1198 14.5627L17.3404 13.7839C17.2424 13.6866 17.1647 13.5709 17.1116 13.4434C17.0586 13.3159 17.0312 13.1792 17.0312 13.0412C17.0312 12.9031 17.0586 12.7664 17.1116 12.6389C17.1647 12.5114 17.2424 12.3957 17.3404 12.2984C17.5378 12.1027 17.8045 11.9929 18.0824 11.9929C18.3603 11.9929 18.627 12.1027 18.8244 12.2984L23.7156 17.1924H33.2362C33.3745 17.192 33.5114 17.219 33.6391 17.2719C33.7668 17.3248 33.8827 17.4026 33.9801 17.5008L37.0254 20.5461C37.1234 20.6434 37.2011 20.7591 37.2542 20.8866C37.3072 21.014 37.3346 21.1507 37.3346 21.2888C37.3346 21.4269 37.3072 21.5636 37.2542 21.6911C37.2011 21.8186 37.1234 21.9343 37.0254 22.0316C36.8125 22.2187 36.5383 22.3209 36.2549 22.319Z" fill="black" stroke="black" stroke-width="0.27422"/>
<path d="M20.3036 16.6811C20.2618 16.681 20.2216 16.6644 20.192 16.6348L19.5839 16.0295C19.5687 16.0149 19.5566 15.9975 19.5482 15.9781C19.5398 15.9588 19.5354 15.938 19.5352 15.917C19.5349 15.8959 19.5389 15.875 19.5468 15.8555C19.5547 15.836 19.5664 15.8183 19.5813 15.8033C19.5961 15.7884 19.6138 15.7766 19.6333 15.7685C19.6527 15.7605 19.6736 15.7564 19.6947 15.7565C19.7157 15.7567 19.7366 15.761 19.7559 15.7692C19.7753 15.7775 19.7928 15.7895 19.8075 15.8046L20.4156 16.4099C20.4379 16.432 20.4532 16.4603 20.4594 16.4911C20.4656 16.522 20.4625 16.5539 20.4505 16.583C20.4385 16.6121 20.4182 16.6369 20.392 16.6544C20.3658 16.6719 20.3351 16.6812 20.3036 16.6811Z" fill="black" stroke="black" stroke-width="0.27422"/>
<path d="M24.8305 17.5097C24.7884 17.5097 24.7481 17.493 24.7183 17.4632C24.6886 17.4335 24.6719 17.3931 24.6719 17.3511V15.3526C24.6719 15.3105 24.6886 15.2702 24.7183 15.2404C24.7481 15.2107 24.7884 15.194 24.8305 15.194H28.6507C28.6928 15.194 28.7332 15.2107 28.7629 15.2404C28.7926 15.2702 28.8094 15.3105 28.8094 15.3526C28.8094 15.3947 28.7926 15.435 28.7629 15.4647C28.7332 15.4945 28.6928 15.5112 28.6507 15.5112H24.9891V17.3511C24.9891 17.3931 24.9724 17.4335 24.9426 17.4632C24.9129 17.493 24.8725 17.5097 24.8305 17.5097Z" fill="black" stroke="black" stroke-width="0.27422"/>
<path d="M29.4031 25.0004C29.3963 25.0004 29.3896 25.0004 29.3831 25.0004C29.3624 24.9978 29.3424 24.9912 29.3243 24.9809C29.3062 24.9706 29.2903 24.9568 29.2775 24.9403C29.2647 24.9239 29.2553 24.905 29.2498 24.8849C29.2443 24.8648 29.2428 24.8438 29.2454 24.8231L29.9639 19.1132C29.9656 19.0919 29.9716 19.0712 29.9816 19.0523C29.9915 19.0334 30.0051 19.0167 30.0217 19.0032C30.0382 18.9897 30.0573 18.9797 30.0778 18.9737C30.0983 18.9678 30.1198 18.966 30.141 18.9686C30.1622 18.9711 30.1827 18.978 30.2012 18.9886C30.2197 18.9993 30.2358 19.0136 30.2487 19.0306C30.2615 19.0477 30.2708 19.0672 30.2759 19.0879C30.2811 19.1086 30.282 19.1302 30.2786 19.1513L29.5617 24.8612C29.5569 24.8998 29.5381 24.9353 29.5089 24.961C29.4796 24.9867 29.442 25.0007 29.4031 25.0004Z" fill="black" stroke="black" stroke-width="0.27422"/>
<path d="M26.1365 25.0005C26.0979 25.0004 26.0606 24.9862 26.0317 24.9605C26.0028 24.9349 25.9842 24.8996 25.9795 24.8612L25.261 19.1513C25.2558 19.1095 25.2673 19.0673 25.2931 19.0341C25.3189 19.0008 25.3569 18.9792 25.3987 18.9739C25.4405 18.9687 25.4826 18.9802 25.5159 19.0061C25.5491 19.0319 25.5707 19.0698 25.576 19.1116L26.2942 24.8215C26.2995 24.8633 26.288 24.9054 26.2622 24.9387C26.2365 24.9719 26.1986 24.9936 26.1568 24.9989C26.1499 25.0001 26.1435 25.0005 26.1365 25.0005Z" fill="black" stroke="black" stroke-width="0.27422"/>
<path d="M35.9975 19.9018C35.9555 19.9018 35.9151 19.8851 35.8854 19.8553C35.8556 19.8256 35.8389 19.7853 35.8389 19.7432V11.3239C35.8381 10.5868 35.5449 9.88019 35.0237 9.359C34.5025 8.83782 33.7959 8.54464 33.0588 8.5438C32.5909 8.5438 31.388 8.81598 30.863 9.62488C30.8518 9.64263 30.8372 9.65797 30.82 9.67003C30.8028 9.68208 30.7834 9.69061 30.7629 9.69511C30.7424 9.69961 30.7212 9.7 30.7006 9.69625C30.6799 9.6925 30.6602 9.68469 30.6426 9.67327C30.625 9.66186 30.6099 9.64706 30.598 9.62973C30.5862 9.61241 30.5779 9.5929 30.5736 9.57235C30.5694 9.5518 30.5692 9.53061 30.5732 9.51C30.5772 9.4894 30.5853 9.46979 30.5969 9.45232C31.198 8.52604 32.5151 8.22659 33.0588 8.22659C33.88 8.22751 34.6673 8.55413 35.2479 9.13479C35.8286 9.71545 36.1552 10.5027 36.1561 11.3239V19.7432C36.1561 19.7853 36.1394 19.8256 36.1097 19.8553C36.0799 19.8851 36.0396 19.9018 35.9975 19.9018Z" fill="black" stroke="black" stroke-width="0.27422"/>
<path d="M30.7323 11.9993C30.7114 11.9993 30.6908 11.9952 30.6715 11.9873C30.6522 11.9793 30.6347 11.9677 30.62 11.9529L28.3179 9.6509C28.2882 9.62115 28.2715 9.58082 28.2715 9.53876C28.2715 9.4967 28.2882 9.45637 28.3179 9.42662C28.6529 9.09161 29.1073 8.9034 29.5811 8.9034C30.0549 8.9034 30.5092 9.09161 30.8442 9.42662C31.1793 9.76163 31.3675 10.216 31.3675 10.6898C31.3675 11.1636 31.1793 11.6179 30.8442 11.9529C30.8145 11.9826 30.7743 11.9993 30.7323 11.9993ZM28.6602 9.54463L30.7262 11.6104C30.9533 11.3281 31.0681 10.9718 31.0485 10.6101C31.0289 10.2483 30.8764 9.90653 30.6202 9.65038C30.364 9.39423 30.0222 9.24175 29.6604 9.22223C29.2987 9.20271 28.9425 9.31753 28.6602 9.54463Z" fill="black" stroke="black" stroke-width="0.27422"/>
<defs>
<filter id="filter0_dd_58_765" x="0.031199" y="0" width="54.8439" height="54.844" filterUnits="userSpaceOnUse" color-interpolation-filters="sRGB">
<feFlood flood-opacity="0" result="BackgroundImageFix"/>
<feColorMatrix in="SourceAlpha" type="matrix" values="0 0 0 0 0 0 0 0 0 0 0 0 0 0 0 0 0 0 127 0" result="hardAlpha"/>
<feMorphology radius="2.19376" operator="erode" in="SourceAlpha" result="effect1_dropShadow_58_765"/>
<feOffset dy="4.38752"/>
<feGaussianBlur stdDeviation="2.19376"/>
<feColorMatrix type="matrix" values="0 0 0 0 0.0666667 0 0 0 0 0.0941176 0 0 0 0 0.152941 0 0 0 0.36 0"/>
<feBlend mode="normal" in2="BackgroundImageFix" result="effect1_dropShadow_58_765"/>
<feColorMatrix in="SourceAlpha" type="matrix" values="0 0 0 0 0 0 0 0 0 0 0 0 0 0 0 0 0 0 127 0" result="hardAlpha"/>
<feMorphology radius="2.19376" operator="erode" in="SourceAlpha" result="effect2_dropShadow_58_765"/>
<feOffset dy="10.9688"/>
<feGaussianBlur stdDeviation="6.58128"/>
<feColorMatrix type="matrix" values="0 0 0 0 0.0666667 0 0 0 0 0.0941176 0 0 0 0 0.152941 0 0 0 0.32 0"/>
<feBlend mode="normal" in2="effect1_dropShadow_58_765" result="effect2_dropShadow_58_765"/>
<feBlend mode="normal" in="SourceGraphic" in2="effect2_dropShadow_58_765" result="shape"/>
</filter>
</defs>
</svg>
