<svg width="55" height="55" viewBox="0 0 55 55" fill="none" xmlns="http://www.w3.org/2000/svg">
<g opacity="0.2" filter="url(#filter0_dd_58_763)">
<circle cx="27.4532" cy="16.4532" r="16.4532" fill="white"/>
<circle cx="27.4532" cy="16.4532" r="16.179" stroke="black" stroke-width="0.54844"/>
</g>
<path d="M31.7827 18.3039C31.6856 18.5579 31.5878 18.797 31.4892 19.0149L31.4892 19.015C31.4588 19.0824 31.4563 19.1592 31.4824 19.2284C31.5084 19.2974 31.5607 19.3533 31.6278 19.384C31.6642 19.4007 31.7038 19.4093 31.7438 19.4092L31.7827 18.3039Z" fill="black" stroke="black" stroke-width="0.27422"/>
<path d="M29.1497 25.1845L29.1501 25.1842C29.0467 25.0575 28.954 24.84 28.8629 24.5823C28.7698 24.3189 28.6714 23.9917 28.5629 23.6309C28.3805 23.0255 28.1542 22.2751 27.8989 21.6737C27.771 21.3725 27.639 21.1164 27.506 20.9366C27.37 20.7528 27.2577 20.6821 27.174 20.6771C27.0926 20.682 26.9828 20.7507 26.8495 20.9305C26.7192 21.1065 26.5899 21.3571 26.4646 21.6522C26.2151 22.2399 25.9941 22.973 25.8156 23.5655C25.6862 24.113 25.4912 24.6429 25.2351 25.1438L25.2268 25.16L25.2146 25.1735C25.0859 25.3154 24.9124 25.4089 24.7232 25.4384C24.5339 25.468 24.3403 25.4318 24.1744 25.3359L24.173 25.3351C23.8107 25.1196 23.5386 24.7652 23.3332 24.3497C23.1275 23.9335 22.984 23.4465 22.8837 22.9521C22.6833 21.9633 22.6519 20.9245 22.6546 20.3153M29.1497 25.1845L22.1927 14.3477C22.2023 14.2742 22.1823 14.1999 22.1372 14.1412C22.0921 14.0824 22.0254 14.044 21.9519 14.0344C21.8784 14.0248 21.8042 14.0448 21.7454 14.0899C21.6866 14.1351 21.6482 14.2017 21.6386 14.2752L21.7745 14.293L21.6386 14.2752C21.5063 15.2836 21.6607 16.4713 21.8704 17.4538C22.0799 18.4353 22.349 19.232 22.4577 19.4618L22.4577 19.4618L22.4584 19.4632C22.5879 19.7286 22.655 20.02 22.6546 20.3153M29.1497 25.1845L29.1573 25.1924M29.1497 25.1845L29.1573 25.1924M22.6546 20.3153C22.6546 20.3152 22.6546 20.3151 22.6546 20.3151L22.7917 20.3157L22.6546 20.3155C22.6546 20.3154 22.6546 20.3153 22.6546 20.3153ZM29.1573 25.1924C29.2359 25.2744 29.3303 25.3397 29.4348 25.3843C29.5392 25.4288 29.6515 25.4518 29.7649 25.4518M29.1573 25.1924L23.2136 20.3188M23.2136 20.3188L23.2136 20.3191C23.211 20.8965 23.2394 21.8718 23.416 22.7885C23.5042 23.2469 23.6286 23.6855 23.8016 24.0505C23.975 24.4162 24.1919 24.6969 24.4591 24.8562C24.5126 24.8871 24.5749 24.899 24.636 24.8902C24.6908 24.8822 24.7418 24.8579 24.7823 24.8207C24.9929 24.3698 25.159 23.8995 25.2783 23.4164L25.28 23.4096L25.2801 23.4097L25.2819 23.4039C25.5042 22.6662 25.7451 21.8668 26.033 21.2484C26.1773 20.9384 26.3373 20.6651 26.5189 20.4657C26.7007 20.2662 26.9162 20.1282 27.169 20.1201L27.1778 20.1198L27.1777 20.1201C27.4338 20.1282 27.6521 20.2684 27.8365 20.4714C28.0208 20.6743 28.1833 20.9526 28.33 21.2684C28.6218 21.8964 28.8666 22.7078 29.0929 23.4577L29.0968 23.4707L29.0991 23.4783L29.0989 23.4784C29.2105 23.944 29.372 24.3962 29.5809 24.8271C29.6212 24.862 29.6711 24.8845 29.7243 24.8914C29.7842 24.8993 29.845 24.887 29.8971 24.8567C30.2489 24.6474 30.5486 24.2005 30.7688 23.4894L30.769 23.4888C30.78 23.4538 30.7978 23.4214 30.8213 23.3932C30.8449 23.3651 30.8737 23.3419 30.9062 23.3249C30.9388 23.3079 30.9743 23.2975 31.0109 23.2943C31.0474 23.2911 31.0842 23.2951 31.1192 23.3061C31.1542 23.317 31.1867 23.3348 31.2148 23.3584C31.243 23.3819 31.2662 23.4108 31.2832 23.4433C31.3001 23.4758 31.3105 23.5114 31.3138 23.5479C31.317 23.5844 31.313 23.6211 31.3021 23.656M23.2136 20.3188C23.2144 19.9393 23.1286 19.5645 22.9628 19.2231M23.2136 20.3188L22.9628 19.2231M31.3021 23.656C31.0519 24.4642 30.6814 25.0417 30.1829 25.3376C30.0565 25.4129 29.912 25.4524 29.7649 25.4518M31.3021 23.656C31.3021 23.6561 31.302 23.6562 31.302 23.6563L31.1713 23.6152L31.3022 23.6557C31.3022 23.6558 31.3021 23.6559 31.3021 23.656ZM29.7649 25.4518C29.7649 25.4518 29.7648 25.4518 29.7647 25.4518L29.7653 25.3148L29.7653 25.4518C29.7652 25.4518 29.7651 25.4518 29.7649 25.4518ZM22.9628 19.2231C22.8702 19.0264 22.6153 18.2783 22.4145 17.3368C22.2136 16.3952 22.0712 15.2799 22.1927 14.3477L22.9628 19.2231Z" fill="black" stroke="black" stroke-width="0.27422"/>
<path d="M31.3386 22.0232L31.3386 22.0233L31.4197 20.8133C31.4008 20.8119 31.3819 20.8144 31.3641 20.8207C31.3463 20.8269 31.3299 20.8368 31.3161 20.8497C31.3023 20.8626 31.2913 20.8783 31.2839 20.8956C31.2764 20.913 31.2726 20.9317 31.2727 20.9506L31.1357 20.9461C31.1357 20.9469 31.1357 20.9476 31.1356 20.9483C31.1272 21.2064 31.1109 21.4668 31.0868 21.7188L31.0868 21.7189C31.0833 21.7554 31.0871 21.7923 31.0979 21.8273C31.1087 21.8624 31.1263 21.895 31.1496 21.9233C31.173 21.9515 31.2018 21.9749 31.2342 21.992C31.2666 22.0092 31.3021 22.0198 31.3386 22.0232ZM31.6188 20.7645C31.5688 20.7112 31.5 20.6796 31.4271 20.6764L31.3653 22.0238C31.3667 22.0238 31.3681 22.0238 31.3695 22.0238C31.4372 22.0227 31.5023 21.997 31.5526 21.9514C31.6039 21.9048 31.636 21.8409 31.6428 21.772L31.6428 21.772L31.6429 21.7714C31.6678 21.506 31.6851 21.2344 31.694 20.9645L31.694 20.9644C31.6964 20.8905 31.6693 20.8186 31.6188 20.7645Z" fill="black" stroke="black" stroke-width="0.27422"/>
<path d="M32.4576 16.8892L32.4577 16.8885C32.4212 16.8848 32.3858 16.874 32.3535 16.8566C32.3213 16.8392 32.2927 16.8156 32.2695 16.7872C32.2463 16.7588 32.229 16.7261 32.2184 16.691L32.4576 16.8892ZM32.4576 16.8892H32.4715M32.4576 16.8892H32.4715M32.4715 16.8892H32.486V16.7521L32.4864 16.8892C32.5553 16.889 32.6217 16.8634 32.6728 16.8172C32.724 16.771 32.7562 16.7076 32.7634 16.639L32.7634 16.6387C32.7672 16.6012 32.7697 16.4675 32.771 16.2919C32.7723 16.1114 32.7723 15.8762 32.77 15.6271C32.7654 15.1317 32.7518 14.5723 32.7207 14.2831C32.7128 14.2095 32.6759 14.142 32.6182 14.0955C32.5606 14.049 32.4868 14.0273 32.4131 14.0353C32.3395 14.0432 32.272 14.08 32.2255 14.1377C32.179 14.1954 32.1574 14.2692 32.1653 14.3428L32.1653 14.3429M32.4715 16.8892L32.1653 14.3429M32.1653 14.3429C32.1944 14.613 32.2071 15.1517 32.2113 15.64C32.2134 15.8828 32.2134 16.1108 32.2124 16.2834C32.2119 16.3697 32.2111 16.4419 32.2102 16.495C32.2098 16.5216 32.2094 16.5431 32.2089 16.559L32.2082 16.578C32.2081 16.5818 32.208 16.5837 32.2079 16.5841L32.1653 14.3429Z" fill="black" stroke="black" stroke-width="0.27422"/>
<path d="M26.9541 7.10283L26.9542 7.10295C26.9809 7.0686 27.015 7.04079 27.054 7.02166C27.093 7.00254 27.1359 6.99259 27.1794 6.99259C27.2229 6.99259 27.2658 7.00254 27.3048 7.02166C27.3438 7.04079 27.3779 7.0686 27.4046 7.10295L27.4091 7.10879L27.4089 7.1089L29.9036 10.7122L33.2043 8.7868C33.2043 8.78679 33.2043 8.78678 33.2043 8.78677C33.2502 8.75999 33.3028 8.74685 33.3558 8.7489C33.4089 8.75095 33.4604 8.76812 33.504 8.79837C33.5477 8.82863 33.5819 8.87073 33.6025 8.91972C33.6231 8.96871 33.6292 9.02256 33.6203 9.07494L32.7177 14.3595L32.7177 14.3596L32.5825 14.3365C32.5769 14.3695 32.5597 14.3996 32.5341 14.4212C32.5084 14.4428 32.476 14.4547 32.4424 14.4547L26.9541 7.10283ZM26.9541 7.10283L26.9498 7.10895L24.4566 10.7133L21.1559 8.78794C21.1559 8.78792 21.1559 8.78791 21.1559 8.7879C21.11 8.76113 21.0575 8.74799 21.0044 8.75004C20.9513 8.75209 20.8999 8.76925 20.8562 8.79951C20.8125 8.82977 20.7783 8.87187 20.7577 8.92086C20.7372 8.96983 20.731 9.02367 20.7399 9.07603C20.7399 9.07605 20.7399 9.07606 20.7399 9.07608L21.6411 14.3595L26.9541 7.10283ZM21.9164 14.5918H32.4424L21.6411 14.3595C21.6522 14.4245 21.6859 14.4835 21.7363 14.526C21.7867 14.5685 21.8505 14.5918 21.9164 14.5918C21.9164 14.5918 21.9164 14.5918 21.9164 14.5918ZM24.767 11.2426L27.1794 7.75831L29.5926 11.2426L29.5926 11.2427C29.6327 11.3004 29.6931 11.341 29.7617 11.3562C29.8303 11.3714 29.9021 11.3602 29.9628 11.3248C29.9628 11.3248 29.9629 11.3248 29.9629 11.3247L32.9687 9.57143L32.2076 14.0334H22.152L21.391 9.57143L24.3968 11.3247C24.3968 11.3248 24.3968 11.3248 24.3968 11.3248C24.4575 11.3602 24.5293 11.3714 24.598 11.3562C24.6666 11.341 24.727 11.3004 24.767 11.2427L24.767 11.2426Z" fill="black" stroke="black" stroke-width="0.27422"/>
<defs>
<filter id="filter0_dd_58_763" x="0.031199" y="0" width="54.8439" height="54.844" filterUnits="userSpaceOnUse" color-interpolation-filters="sRGB">
<feFlood flood-opacity="0" result="BackgroundImageFix"/>
<feColorMatrix in="SourceAlpha" type="matrix" values="0 0 0 0 0 0 0 0 0 0 0 0 0 0 0 0 0 0 127 0" result="hardAlpha"/>
<feMorphology radius="2.19376" operator="erode" in="SourceAlpha" result="effect1_dropShadow_58_763"/>
<feOffset dy="4.38752"/>
<feGaussianBlur stdDeviation="2.19376"/>
<feColorMatrix type="matrix" values="0 0 0 0 0.0666667 0 0 0 0 0.0941176 0 0 0 0 0.152941 0 0 0 0.36 0"/>
<feBlend mode="normal" in2="BackgroundImageFix" result="effect1_dropShadow_58_763"/>
<feColorMatrix in="SourceAlpha" type="matrix" values="0 0 0 0 0 0 0 0 0 0 0 0 0 0 0 0 0 0 127 0" result="hardAlpha"/>
<feMorphology radius="2.19376" operator="erode" in="SourceAlpha" result="effect2_dropShadow_58_763"/>
<feOffset dy="10.9688"/>
<feGaussianBlur stdDeviation="6.58128"/>
<feColorMatrix type="matrix" values="0 0 0 0 0.0666667 0 0 0 0 0.0941176 0 0 0 0 0.152941 0 0 0 0.32 0"/>
<feBlend mode="normal" in2="effect1_dropShadow_58_763" result="effect2_dropShadow_58_763"/>
<feBlend mode="normal" in="SourceGraphic" in2="effect2_dropShadow_58_763" result="shape"/>
</filter>
</defs>
</svg>
