<svg width="32" height="32" viewBox="0 0 32 32" fill="none" xmlns="http://www.w3.org/2000/svg">
<path opacity="0.1" fill-rule="evenodd" clip-rule="evenodd" d="M0 16C0 7.16344 7.16344 0 16 0C24.8366 0 32 7.16344 32 16C32 24.8366 24.8366 32 16 32C7.16344 32 0 24.8366 0 16Z" fill="black"/>
<path fill-rule="evenodd" clip-rule="evenodd" d="M25.5183 10.8295C25.6636 10.3517 25.5183 10 24.8227 10H22.5259C21.9414 10 21.6719 10.3036 21.5258 10.6387C21.5258 10.6387 20.3577 13.4352 18.7031 15.2516C18.1676 15.7784 17.9244 15.9455 17.6321 15.9455C17.486 15.9455 17.2664 15.7784 17.2664 15.2998V10.8295C17.2664 10.2555 17.1054 10 16.6189 10H13.007C12.6421 10 12.4225 10.266 12.4225 10.5189C12.4225 11.0622 13.2502 11.1882 13.3351 12.7177V16.0409C13.3351 16.7697 13.2012 16.9019 12.909 16.9019C12.1302 16.9019 10.2359 14.0923 9.11154 10.8776C8.89367 10.252 8.67317 10 8.08606 10H5.78748C5.13125 10 5 10.3036 5 10.6387C5 11.2355 5.77873 14.1999 8.6268 18.1207C10.5255 20.7981 13.1986 22.2497 15.6337 22.2497C17.094 22.2497 17.2742 21.9278 17.2742 21.3721V19.3483C17.2742 18.7034 17.4125 18.5748 17.8754 18.5748C18.2166 18.5748 18.8002 18.7428 20.1634 20.0334C21.7209 21.5638 21.9773 22.2497 22.854 22.2497H25.1508C25.8071 22.2497 26.1361 21.9277 25.9471 21.2908C25.7388 20.6573 24.9951 19.7377 24.009 18.6466C23.4735 18.0253 22.6703 17.356 22.4261 17.0209C22.0858 16.5912 22.1829 16.3996 22.4261 16.0172C22.4261 16.0172 25.2261 12.1446 25.5174 10.8295H25.5183Z" fill="#374151"/>
</svg>
